HIERARCHY
ROOT Elbow
{
	OFFSET	0.00	0.00	0.00
	CHANNELS 6 Xposition Yposition Zposition Zrotation Xrotation Yrotation
	JOINT L_Wrist
	{
		OFFSET	 0.208349	 0.000000	 0.000000
		CHANNELS 3 Zrotation Xrotation Yrotation
		JOINT L_index_Proximal
		{
			OFFSET	 0.093499	 0.010637	-0.002084
			CHANNELS 3 Zrotation Xrotation Yrotation
			JOINT L_index_b
			{
				OFFSET	 0.033152	 0.000000	 0.000000
				CHANNELS 3 Zrotation Xrotation Yrotation
				JOINT L_index_c
				{
					OFFSET	 0.018651	 0.000000	 0.000000
					CHANNELS 3 Zrotation Xrotation Yrotation
					End Site
					{
						OFFSET	 0.018651	 0.000000	 0.000000
					}
				}
			}
		}
		JOINT L_middle_Proximal
		{
			OFFSET	 0.090632	-0.006115	-0.003750
			CHANNELS 3 Zrotation Xrotation Yrotation
			JOINT L_middle_b
			{
				OFFSET	 0.037195	 0.000000	 0.000000
				CHANNELS 3 Zrotation Xrotation Yrotation
				JOINT L_middle_c
				{
					OFFSET	 0.021943	 0.000000	 0.000000
					CHANNELS 3 Zrotation Xrotation Yrotation
					End Site
					{
						OFFSET	 0.021943	 0.000000	 0.000000
					}
				}
			}
		}
		JOINT L_pinky_Proximal
		{
			OFFSET	 0.074015	-0.035449	-0.000417
			CHANNELS 3 Zrotation Xrotation Yrotation
			JOINT L_pinky_b
			{
				OFFSET	 0.027285	 0.000000	 0.000000
				CHANNELS 3 Zrotation Xrotation Yrotation
				JOINT L_pinky_c
				{
					OFFSET	 0.015093	 0.000000	 0.000000
					CHANNELS 3 Zrotation Xrotation Yrotation
					End Site
					{
						OFFSET	 0.015093	 0.000000	 0.000000
					}
				}
			}
		}
		JOINT L_ring_Proximal
		{
			OFFSET	 0.082801	-0.021859	-0.003750
			CHANNELS 3 Zrotation Xrotation Yrotation
			JOINT L_ring_b
			{
				OFFSET	 0.034478	 0.000000	 0.000000
				CHANNELS 3 Zrotation Xrotation Yrotation
				JOINT L_ring_c
				{
					OFFSET	 0.021377	 0.000000	 0.000000
					CHANNELS 3 Zrotation Xrotation Yrotation
					End Site
					{
						OFFSET	 0.021377	 0.000000	 0.000000
					}
				}
			}
		}
		JOINT L_thumb_Proximal
		{
			OFFSET	 0.030306	 0.018528	 0.004584
			CHANNELS 3 Zrotation Xrotation Yrotation
			JOINT L_thumb_a
			{
				OFFSET	 0.038520	 0.000000	 0.000000
				CHANNELS 3 Zrotation Xrotation Yrotation
				JOINT L_thumb_b
				{
					OFFSET	 0.026310	 0.000000	 0.000000
					CHANNELS 3 Zrotation Xrotation Yrotation
					End Site
					{
						OFFSET	 0.026310	 0.000000	 0.000000
					}
				}
			}
		}
	}
}
MOTION
Frames:    21
Frame Time: 0.01666667
 0.646012	 0.313648	 0.666067	 48.115790	 76.940350	 43.157040	 2.317822	 3.648615	 21.200830	-1.204789	 0.621240	-62.488740	-3.940113	 3.205591	-78.254680	-0.572461	 0.234402	-44.533360	-10.803740	-7.632293	-65.244690	 6.565012	-6.418281	-88.702250	 8.970019	-3.952090	-47.485880	-35.122220	-13.834690	-69.648450	-2.795572	 2.449162	-82.439740	 0.085086	-0.039124	-49.387070	-21.043310	-9.490086	-73.949850	 5.062910	-5.062318	-89.993210	 5.634796	-2.187305	-42.403700	 57.017700	 60.680740	-15.561270	-3.676229	 0.014000	-0.436333	-4.490534	 0.535190	-13.586070
 0.646011	 0.313298	 0.666014	 47.851310	 76.937580	 43.427640	 2.313449	 3.649318	 21.205140	-1.225776	 0.636219	-62.487670	-3.947875	 3.214127	-78.293500	-0.556785	 0.228175	-44.567400	-10.893090	-7.561782	-65.463830	 6.343919	-6.224472	-88.908730	 8.816165	-3.870715	-47.340350	-35.114580	-13.846230	-69.595260	-2.776775	 2.435802	-82.511890	 0.119262	-0.054892	-49.422210	-21.032140	-9.500027	-73.942400	 5.057347	-5.058203	-90.009760	 5.636105	-2.188778	-42.420760	 56.973240	 60.687390	-15.544060	-3.673183	 0.013914	-0.433927	-4.449800	 0.530639	-13.594040
 0.646066	 0.313200	 0.666026	 47.749590	 76.935460	 43.531470	 2.306061	 3.651047	 21.215760	-1.243637	 0.649018	-62.492020	-3.948856	 3.215849	-78.309620	-0.549342	 0.225218	-44.584820	-10.968100	-7.503665	-65.567870	 6.236197	-6.125747	-88.974200	 8.791798	-3.853090	-47.264980	-35.123230	-13.847650	-69.520180	-2.782495	 2.441527	-82.528630	 0.146797	-0.067589	-49.448230	-21.042840	-9.491495	-73.920150	 5.039130	-5.040040	-90.010400	 5.637673	-2.190057	-42.432560	 56.981980	 60.684320	-15.556830	-3.681735	 0.013676	-0.425194	-4.413151	 0.526346	-13.596400
 0.646114	 0.313176	 0.666076	 47.721970	 76.932400	 43.561730	 2.301458	 3.650695	 21.213510	-1.241399	 0.647368	-62.488760	-3.913243	 3.188068	-78.331220	-0.491867	 0.201880	-44.629460	-10.995860	-7.481919	-65.616790	 6.200671	-6.097889	-89.040510	 8.756815	-3.836106	-47.247410	-35.132400	-13.842210	-69.505870	-2.779117	 2.439594	-82.552570	 0.167194	-0.077027	-49.475770	-21.057080	-9.479140	-73.920790	 5.004098	-5.007284	-90.036480	 5.642314	-2.192734	-42.447750	 57.002290	 60.681490	-15.563600	-3.698830	 0.012796	-0.396277	-4.437354	 0.526213	-13.519360
 0.646367	 0.313314	 0.665954	 47.656250	 76.972470	 43.633090	 2.303647	 3.649413	 21.205650	-1.211734	 0.626860	-62.546790	-3.798245	 3.104172	-78.508880	-0.305367	 0.125261	-44.607670	-11.010250	-7.470357	-65.656070	 6.159974	-6.063622	-89.095020	 8.730373	-3.832844	-47.339300	-35.140370	-13.833220	-69.532800	-2.782201	 2.442394	-82.555170	 0.151894	-0.069992	-49.486800	-21.052340	-9.483351	-73.918010	 4.970088	-4.973825	-90.043120	 5.624654	-2.187681	-42.480110	 57.010330	 60.682290	-15.556000	-3.699576	 0.012424	-0.384377	-4.453795	 0.526275	-13.471480
 0.646231	 0.313229	 0.665807	 47.483360	 77.020330	 43.807930	 2.302994	 3.646697	 21.189100	-1.203776	 0.621498	-62.573190	-3.784216	 3.087290	-78.410660	-0.286880	 0.117812	-44.656010	-10.999520	-7.478831	-65.634850	 6.168756	-6.067409	-89.049030	 8.765578	-3.854003	-47.401230	-35.126810	-13.842860	-69.539440	-2.752123	 2.416062	-82.556680	 0.161854	-0.074603	-49.495540	-21.045790	-9.489589	-73.901540	 4.967696	-4.970922	-90.037370	 5.643276	-2.196442	-42.506840	 56.837780	 60.728450	-15.379310	-3.689974	 0.012978	-0.403092	-4.447402	 0.526044	-13.484590
 0.646166	 0.313182	 0.665566	 47.361000	 77.022360	 43.919110	 2.281394	 3.643558	 21.170050	-1.233365	 0.643717	-62.662770	-3.772777	 3.070827	-78.280430	-0.219211	 0.090117	-44.700120	-11.020540	-7.462746	-65.648970	 6.157888	-6.054926	-89.032070	 8.769643	-3.860698	-47.454880	-35.134230	-13.841530	-69.498900	-2.751674	 2.415511	-82.552890	 0.181752	-0.083885	-49.551250	-21.079120	-9.461340	-73.882310	 4.966553	-4.969388	-90.032620	 5.651515	-2.202381	-42.554770	 56.692080	 60.760600	-15.265290	-3.721868	 0.013190	-0.406069	-4.457027	 0.525317	-13.437750
 0.646139	 0.313146	 0.665482	 47.386810	 77.019630	 43.889180	 2.282863	 3.641437	 21.156940	-1.263614	 0.665389	-62.665560	-3.804435	 3.096956	-78.286960	-0.241218	 0.099177	-44.698200	-11.040090	-7.448116	-65.647860	 6.135636	-6.035314	-89.053750	 8.747497	-3.851443	-47.460710	-35.152920	-13.829340	-69.479680	-2.771302	 2.432511	-82.547320	 0.174052	-0.080368	-49.571040	-21.098600	-9.445378	-73.856890	 4.949918	-4.954881	-90.057560	 5.646671	-2.200318	-42.551900	 56.651330	 60.768550	-15.238670	-3.730687	 0.013123	-0.402825	-4.493681	 0.528885	-13.418480
 0.646186	 0.313260	 0.665396	 47.394710	 77.056230	 43.877540	 2.284587	 3.638945	 21.141780	-1.300613	 0.691678	-62.648960	-3.848337	 3.135159	-78.330800	-0.276255	 0.113613	-44.713850	-11.062770	-7.431856	-65.609040	 6.108272	-6.006463	-89.035250	 8.759011	-3.858742	-47.484910	-35.170060	-13.824950	-69.398900	-2.793275	 2.451251	-82.534780	 0.157168	-0.072592	-49.581670	-21.110460	-9.438274	-73.767010	 4.930732	-4.936778	-90.070190	 5.652352	-2.202188	-42.545620	 56.600860	 60.781100	-15.191250	-3.736790	 0.012057	-0.369198	-4.513012	 0.529008	-13.364720
 0.646206	 0.313330	 0.665276	 47.325940	 77.079360	 43.942870	 2.274409	 3.636603	 21.127440	-1.293518	 0.686445	-62.638690	-3.827410	 3.120347	-78.371060	-0.254817	 0.104805	-44.716960	-11.052270	-7.440048	-65.593960	 6.108135	-6.007587	-89.047270	 8.771224	-3.867197	-47.518360	-35.197220	-13.804890	-69.392940	-2.814927	 2.470394	-82.538050	 0.142823	-0.065974	-49.592600	-21.112100	-9.436977	-73.763740	 4.928463	-4.934992	-90.076020	 5.658734	-2.204971	-42.550790	 56.575000	 60.791310	-15.146390	-3.751981	 0.011159	-0.340695	-4.534325	 0.529784	-13.321480
 0.646178	 0.313409	 0.665143	 47.399040	 77.091740	 43.882620	 2.247324	 3.634522	 21.114760	-1.284542	 0.680344	-62.662720	-3.794481	 3.097745	-78.448230	-0.256968	 0.105643	-44.697140	-11.033450	-7.454775	-65.563030	 6.099192	-6.002799	-89.085510	 8.736687	-3.856320	-47.566550	-35.260420	-13.749330	-69.460450	-2.840879	 2.492654	-82.526080	 0.092429	-0.042659	-49.542630	-21.146410	-9.407720	-73.751750	 4.914501	-4.921648	-90.083410	 5.617142	-2.189984	-42.572810	 56.538430	 60.800110	-15.113340	-3.772603	 0.010600	-0.321241	-4.611758	 0.535397	-13.237340
 0.646127	 0.313484	 0.665096	 47.370060	 77.098820	 43.908070	 2.239302	 3.629640	 21.085020	-1.245450	 0.651664	-62.603580	-3.779639	 3.085840	-78.452200	-0.322971	 0.132907	-44.737660	-11.007660	-7.474625	-65.535710	 6.119490	-6.026679	-89.122760	 8.728515	-3.853456	-47.575010	-35.247940	-13.752780	-69.516220	-2.811150	 2.466693	-82.529290	 0.088130	-0.040675	-49.536120	-21.141280	-9.411272	-73.775650	 4.930168	-4.939888	-90.112920	 5.601715	-2.184689	-42.585780	 56.534070	 60.804090	-15.093490	-3.773624	 0.009860	-0.299403	-4.641192	 0.538579	-13.231360
 0.646069	 0.313410	 0.665063	 47.182490	 77.139590	 44.099380	 2.230847	 3.629118	 21.081820	-1.173847	 0.600070	-62.568880	-3.769245	 3.077002	-78.445770	-0.416117	 0.171612	-44.824910	-10.963360	-7.508594	-65.495830	 6.203476	-6.104982	-89.081360	 8.733469	-3.868514	-47.716060	-35.237080	-13.752220	-69.597740	-2.774897	 2.433045	-82.486180	 0.099663	-0.045975	-49.534870	-21.143490	-9.407774	-73.820470	 4.986219	-4.996889	-90.122610	 5.607220	-2.186118	-42.572960	 56.500910	 60.822800	-15.005160	-3.772339	 0.010664	-0.323709	-4.689739	 0.547801	-13.317550
 0.646011	 0.313359	 0.665067	 47.186730	 77.151420	 44.101060	 2.228948	 3.628201	 21.076240	-1.172339	 0.599093	-62.578370	-3.801956	 3.105685	-78.481490	-0.421724	 0.174129	-44.870560	-10.974030	-7.499976	-65.528610	 6.134151	-6.044565	-89.155460	 8.680820	-3.843146	-47.694400	-35.231380	-13.756750	-69.596180	-2.792640	 2.449174	-82.499780	 0.104843	-0.048396	-49.557060	-21.161750	-9.390614	-73.857170	 4.938226	-4.953327	-90.175030	 5.602822	-2.183515	-42.557260	 56.501910	 60.823870	-14.999040	-3.764737	 0.011327	-0.344862	-4.673317	 0.547325	-13.352510
 0.646030	 0.313252	 0.665109	 47.208490	 77.164930	 44.093220	 2.245474	 3.628044	 21.075340	-1.134448	 0.571874	-62.564490	-3.805123	 3.109307	-78.500250	-0.418246	 0.172986	-44.936620	-10.968580	-7.503222	-65.572850	 6.144826	-6.056796	-89.171770	 8.746278	-3.871227	-47.683450	-35.191950	-13.786030	-69.604320	-2.774662	 2.434016	-82.513880	 0.142512	-0.065854	-49.607430	-21.139590	-9.408666	-73.888940	 4.962929	-4.977413	-90.167250	 5.647446	-2.202381	-42.582740	 56.569180	 60.814970	-15.020450	-3.735765	 0.011727	-0.359385	-4.648086	 0.548451	-13.451570
 0.646011	 0.313056	 0.665139	 47.137620	 77.159100	 44.172760	 2.259315	 3.627982	 21.074830	-1.129737	 0.568293	-62.545670	-3.818801	 3.120088	-78.493070	-0.447052	 0.184965	-44.952500	-10.970460	-7.501479	-65.590490	 6.162754	-6.076234	-89.188420	 8.775784	-3.884477	-47.685190	-35.174470	-13.797280	-69.624280	-2.770373	 2.429787	-82.503170	 0.154548	-0.071445	-49.621410	-21.138230	-9.409028	-73.912490	 4.974885	-4.989777	-90.171560	 5.661848	-2.207959	-42.581970	 56.596150	 60.810920	-15.031790	-3.736493	 0.011923	-0.365433	-4.655672	 0.549737	-13.461330
 0.646067	 0.312900	 0.665259	 47.234220	 77.123840	 44.086620	 2.248668	 3.626515	 21.065890	-1.144987	 0.579411	-62.567650	-3.810404	 3.111591	-78.463550	-0.395804	 0.163526	-44.896280	-10.984000	-7.491078	-65.603580	 6.173721	-6.089833	-89.214670	 8.771287	-3.879214	-47.649470	-35.204090	-13.771490	-69.652910	-2.794238	 2.449969	-82.485240	 0.134425	-0.062159	-49.624790	-21.191230	-9.361086	-73.965600	 4.939958	-4.956892	-90.196390	 5.642145	-2.197618	-42.535470	 56.716220	 60.791980	-15.086420	-3.734806	 0.012637	-0.387577	-4.676132	 0.551970	-13.456660
 0.646030	 0.312801	 0.665295	 47.330060	 77.097590	 43.995590	 2.256603	 3.624862	 21.055790	-1.154208	 0.586254	-62.590390	-3.805754	 3.107799	-78.463840	-0.411023	 0.169515	-44.822400	-10.991600	-7.485270	-65.609440	 6.159276	-6.073987	-89.199620	 8.744740	-3.865582	-47.628950	-35.216690	-13.756660	-69.700610	-2.822336	 2.473591	-82.461970	 0.099966	-0.046183	-49.598410	-21.210530	-9.342238	-74.021990	 4.903819	-4.918631	-90.172890	 5.599810	-2.179701	-42.510370	 56.800270	 60.773570	-15.151970	-3.712720	 0.013298	-0.410601	-4.670157	 0.549910	-13.424030
 0.645954	 0.312597	 0.665409	 47.749200	 77.013760	 43.597810	 2.283815	 3.623925	 21.050070	-1.183166	 0.607105	-62.604410	-3.806056	 3.107085	-78.446270	-0.416868	 0.171509	-44.727140	-11.054620	-7.436238	-65.695550	 6.125984	-6.037229	-89.162220	 8.710177	-3.839892	-47.515040	-35.254180	-13.718100	-69.790280	-2.896809	 2.536826	-82.416440	 0.057194	-0.026381	-49.535410	-21.269080	-9.285366	-74.178730	 4.835732	-4.844288	-90.101460	 5.545441	-2.154240	-42.433760	 57.078700	 60.700810	-15.429560	-3.724210	 0.013804	-0.424596	-4.662167	 0.547772	-13.395030
 0.646031	 0.312542	 0.665515	 47.730910	 77.008130	 43.619320	 2.287101	 3.624680	 21.054630	-1.170303	 0.597463	-62.563990	-3.819079	 3.119825	-78.484350	-0.469693	 0.193085	-44.695930	-11.092440	-7.407053	-65.731740	 6.086646	-6.001386	-89.190070	 8.690472	-3.827949	-47.479330	-35.263580	-13.707820	-69.818210	-2.925398	 2.562190	-82.423770	 0.035256	-0.016259	-49.532420	-21.286770	-9.268258	-74.222240	 4.800702	-4.810354	-90.115230	 5.539207	-2.150582	-42.411370	 57.173100	 60.686550	-15.467260	-3.723875	 0.013214	-0.406387	-4.665245	 0.547428	-13.378010
 0.646052	 0.312109	 0.665596	 47.608330	 76.977330	 43.774030	 2.291947	 3.625190	 21.057850	-1.216064	 0.631323	-62.662380	-3.866385	 3.164701	-78.594790	-0.392697	 0.161411	-44.689880	-11.207330	-7.316740	-65.905530	 5.863277	-5.802509	-89.401980	 8.561723	-3.754304	-47.291480	-35.305350	-13.671800	-69.853480	-3.006362	 2.637444	-82.517100	 0.026455	-0.012195	-49.493780	-21.352650	-9.208785	-74.272370	 4.684529	-4.700710	-90.197790	 5.511602	-2.137816	-42.374720	 57.294980	 60.662290	-15.546480	-3.728703	 0.013315	-0.408853	-4.593881	 0.539348	-13.385570
